<svg width="24" height="25" viewBox="0 0 24 25" fill="none" xmlns="http://www.w3.org/2000/svg">
<g id="plus">
<path id="&#240;&#159;&#142;&#168; Icon &#208;&#161;olor" d="M19 11.5H13V5.5C13 4.947 12.552 4.5 12 4.5C11.448 4.5 11 4.947 11 5.5V11.5H5C4.448 11.5 4 11.947 4 12.5C4 13.053 4.448 13.5 5 13.5H11V19.5C11 20.053 11.448 20.5 12 20.5C12.552 20.5 13 20.053 13 19.5V13.5H19C19.552 13.5 20 13.053 20 12.5C20 11.947 19.552 11.5 19 11.5Z" fill="#242424"/>
<mask id="mask0_313_659" style="mask-type:luminance" maskUnits="userSpaceOnUse" x="4" y="4" width="16" height="17">
<path id="&#240;&#159;&#142;&#168; Icon &#208;&#161;olor_2" d="M19 11.5H13V5.5C13 4.947 12.552 4.5 12 4.5C11.448 4.5 11 4.947 11 5.5V11.5H5C4.448 11.5 4 11.947 4 12.5C4 13.053 4.448 13.5 5 13.5H11V19.5C11 20.053 11.448 20.5 12 20.5C12.552 20.5 13 20.053 13 19.5V13.5H19C19.552 13.5 20 13.053 20 12.5C20 11.947 19.552 11.5 19 11.5Z" fill="white"/>
</mask>
<g mask="url(#mask0_313_659)">
</g>
</g>
</svg>
