<?xml version="1.0" encoding="iso-8859-1"?>
<!-- Uploaded to: SVG Repo, www.svgrepo.com, Generator: SVG Repo Mixer Tools -->
<svg fill="#000000" height="800px" width="800px" version="1.1" id="Layer_1" xmlns="http://www.w3.org/2000/svg" xmlns:xlink="http://www.w3.org/1999/xlink" 
	 viewBox="0 0 512 512" xml:space="preserve">
<g>
	<g>
		<path d="M418.894,217.62L366.364,5.735c-0.835-3.37-3.86-5.735-7.33-5.735H152.965c-3.472,0-6.496,2.367-7.33,5.735L93.105,217.62
			c-0.559,2.256-0.049,4.643,1.382,6.472c1.431,1.829,3.625,2.899,5.949,2.899h130.425v43.908h-4.379
			c-13.423,0-26.313,5.684-35.367,15.593c-9.051,9.908-13.549,23.258-12.338,36.622l12.851,142.286h-15.337
			c-4.17,0-7.553,3.382-7.553,7.553v31.496c0,4.17,3.382,7.553,7.553,7.553h159.417c4.17,0,7.553-3.382,7.553-7.553v-31.496
			c0-4.17-3.382-7.553-7.553-7.553h-15.337l12.853-142.283c1.21-13.367-3.287-26.717-12.339-36.625
			c-9.052-9.909-21.943-15.592-35.365-15.592h-4.381V226.99h47.319v52.468c0,4.17,3.383,7.553,7.553,7.553
			c4.17,0,7.553-3.382,7.553-7.553V226.99h68.003c2.324,0,4.518-1.069,5.949-2.899C418.944,222.261,419.454,219.874,418.894,217.62z
			 M328.153,480.504v16.39H183.842v-16.39H328.153z M285.517,286.004c9.325,0,17.924,3.79,24.213,10.675
			c6.288,6.883,9.288,15.788,8.447,25.076l-12.976,143.644h-98.408L193.82,321.752c-0.841-9.285,2.159-18.19,8.445-25.073
			c6.289-6.884,14.888-10.675,24.213-10.675H285.517z M245.966,270.898V226.99h20.066v43.908H245.966z M110.088,211.885
			l48.786-196.779h194.25l48.787,196.779H110.088z"/>
	</g>
</g>
</svg>