<!-- icon666.com - MILLIONS vector ICONS FREE --><svg xmlns="http://www.w3.org/2000/svg" viewBox="0 0 64 64"><g id="Bell"><path d="M57.9609,42.9629A15.7344,15.7344,0,0,1,50,29.2949v-2.85a18.7521,18.7521,0,0,0-5.6084-13.2939,18.28,18.28,0,0,0-3.5245-2.6845A9.2526,9.2526,0,0,0,41,9,9,9,0,0,0,23,9a9.24,9.24,0,0,0,.1173,1.3775A18.0758,18.0758,0,0,0,14,26v3.2949a15.7344,15.7344,0,0,1-7.9609,13.668A5.8856,5.8856,0,0,0,8.8906,54h12.16a10.9944,10.9944,0,0,0,21.8986,0h12.16a5.8856,5.8856,0,0,0,2.8515-11.0371ZM25.0117,9.4111C25.0039,9.2734,25,9.1367,25,9A7,7,0,0,1,39,9c0,.1367-.0039.2734-.0117.4111A18.17,18.17,0,0,0,32,8,19.1164,19.1164,0,0,0,25.0117,9.4111ZM32,62a9.0121,9.0121,0,0,1-8.9443-8H40.9443A9.0121,9.0121,0,0,1,32,62ZM55.1094,52H8.8906A3.8947,3.8947,0,0,1,5,48.1094a3.9431,3.9431,0,0,1,2.0254-3.4063A17.7369,17.7369,0,0,0,16,29.2949V26A16.0943,16.0943,0,0,1,31.9929,10,15.6882,15.6882,0,0,1,42.99,14.5791,16.74,16.74,0,0,1,48,26.4453v2.85a17.7369,17.7369,0,0,0,8.9746,15.4082A3.9431,3.9431,0,0,1,59,48.1094,3.8947,3.8947,0,0,1,55.1094,52Z"></path></g></svg>