<!-- icon666.com - MILLIONS vector ICONS FREE --><svg xmlns="http://www.w3.org/2000/svg" viewBox="0 0 64 64"><g id="Bell"><path d="M57.9609,42.9629A15.7344,15.7344,0,0,1,50,29.2949v-2.85a18.7521,18.7521,0,0,0-5.6084-13.2939A17.6806,17.6806,0,0,0,31.6563,8.0029,18.0879,18.0879,0,0,0,14,26v3.2949a15.7344,15.7344,0,0,1-7.9609,13.668A5.8856,5.8856,0,0,0,8.8906,54H55.1094a5.8856,5.8856,0,0,0,2.8515-11.0371Z"></path><path d="M42.58,56a10.996,10.996,0,0,1-21.16,0Z"></path><path d="M40.96,8.2A19.3439,19.3439,0,0,0,31.99,6h-.37a19.718,19.718,0,0,0-8.58,2.14,8.9983,8.9983,0,0,1,17.92.06Z"></path></g></svg>