<svg width="24" height="25" viewBox="0 0 24 25" fill="none" xmlns="http://www.w3.org/2000/svg">
<path fill-rule="evenodd" clip-rule="evenodd" d="M2.60693 4.64286C2.60693 4.47236 2.67466 4.30885 2.79522 4.18829C2.91578 4.06773 3.07929 4 3.24979 4H5.17836C5.32176 4.00004 5.46103 4.04802 5.57402 4.13632C5.68701 4.22461 5.76723 4.34815 5.80193 4.48729L6.32265 6.57143H21.2498C21.3474 6.57146 21.4438 6.59373 21.5316 6.63655C21.6193 6.67938 21.6962 6.74164 21.7563 6.81859C21.8164 6.89555 21.8581 6.98519 21.8784 7.08071C21.8987 7.17623 21.897 7.27511 21.8734 7.36986L19.9448 15.0841C19.9101 15.2233 19.8299 15.3468 19.7169 15.4351C19.6039 15.5234 19.4646 15.5714 19.3212 15.5714H7.74979C7.60639 15.5714 7.46713 15.5234 7.35414 15.4351C7.24115 15.3468 7.16092 15.2233 7.12622 15.0841L4.67693 5.28571H3.24979C3.07929 5.28571 2.91578 5.21798 2.79522 5.09743C2.67466 4.97687 2.60693 4.81335 2.60693 4.64286ZM6.64408 7.85714L8.25122 14.2857H18.8198L20.4269 7.85714H6.64408ZM9.0355 18.1429C8.69451 18.1429 8.36749 18.2783 8.12637 18.5194C7.88525 18.7606 7.74979 19.0876 7.74979 19.4286C7.74979 19.7696 7.88525 20.0966 8.12637 20.3377C8.36749 20.5788 8.69451 20.7143 9.0355 20.7143C9.3765 20.7143 9.70352 20.5788 9.94464 20.3377C10.1858 20.0966 10.3212 19.7696 10.3212 19.4286C10.3212 19.0876 10.1858 18.7606 9.94464 18.5194C9.70352 18.2783 9.3765 18.1429 9.0355 18.1429ZM6.46408 19.4286C6.46408 18.7466 6.73499 18.0925 7.21723 17.6103C7.69947 17.1281 8.35352 16.8571 9.0355 16.8571C9.71749 16.8571 10.3715 17.1281 10.8538 17.6103C11.336 18.0925 11.6069 18.7466 11.6069 19.4286C11.6069 20.1106 11.336 20.7646 10.8538 21.2468C10.3715 21.7291 9.71749 22 9.0355 22C8.35352 22 7.69947 21.7291 7.21723 21.2468C6.73499 20.7646 6.46408 20.1106 6.46408 19.4286ZM18.0355 18.1429C17.6945 18.1429 17.3675 18.2783 17.1264 18.5194C16.8852 18.7606 16.7498 19.0876 16.7498 19.4286C16.7498 19.7696 16.8852 20.0966 17.1264 20.3377C17.3675 20.5788 17.6945 20.7143 18.0355 20.7143C18.3765 20.7143 18.7035 20.5788 18.9446 20.3377C19.1858 20.0966 19.3212 19.7696 19.3212 19.4286C19.3212 19.0876 19.1858 18.7606 18.9446 18.5194C18.7035 18.2783 18.3765 18.1429 18.0355 18.1429ZM15.4641 19.4286C15.4641 18.7466 15.735 18.0925 16.2172 17.6103C16.6995 17.1281 17.3535 16.8571 18.0355 16.8571C18.7175 16.8571 19.3715 17.1281 19.8538 17.6103C20.336 18.0925 20.6069 18.7466 20.6069 19.4286C20.6069 20.1106 20.336 20.7646 19.8538 21.2468C19.3715 21.7291 18.7175 22 18.0355 22C17.3535 22 16.6995 21.7291 16.2172 21.2468C15.735 20.7646 15.4641 20.1106 15.4641 19.4286Z" fill="#242424"/>
</svg>
