<?xml version="1.0" encoding="UTF-8" standalone="no"?>
<!-- Uploaded to: SVG Repo, www.svgrepo.com, Generator: SVG Repo Mixer Tools -->
<svg width="800px" height="800px" viewBox="0 -14.5 64 64" version="1.1" xmlns="http://www.w3.org/2000/svg" xmlns:xlink="http://www.w3.org/1999/xlink" xmlns:sketch="http://www.bohemiancoding.com/sketch/ns">
    
    <title>Sofa</title>
    <desc>Created with Sketch.</desc>
    <defs>
</defs>
    <g id="Page-1" stroke="none" stroke-width="1" fill="none" fill-rule="evenodd" sketch:type="MSPage">
        <g id="Sofa" sketch:type="MSLayerGroup" transform="translate(1.000000, 2.000000)" stroke="#6B6C6E" stroke-width="2">
            <path d="M4.9,9.3 L4.9,1.9 C4.9,0.8 5.8,-0.1 6.9,-0.1 L28,-0.1 C29.1,-0.1 30,0.8 30,1.9 L30,18.9" id="Shape" sketch:type="MSShapeGroup">
</path>
            <path d="M30,19 L30,2 C30,0.9 30.9,0 32,0 L54.1,0 C55.2,0 56.1,0.9 56.1,2 L56.1,9.4" id="Shape" sketch:type="MSShapeGroup">
</path>
            <path d="M59.1,10 L56,10 C54.9,10 54,10.9 54,12 L54,19 L7,19 L7,12 C7,10.9 6.1,10 5,10 L2,10 C0.9,10 0,10.9 0,12 L0,25.1 C0,26.2 0.9,27.1 2,27.1 L5,27.1 L5,29.1 C5,30.2 5.9,31.1 7,31.1 L10.1,31.1 C11.2,31.1 12.1,30.2 12.1,29.1 L12.1,27.1 L48.1,27.1 L48.1,29.1 C48.1,30.2 49,31.1 50.1,31.1 L54.2,31.1 C55.3,31.1 56.2,30.2 56.2,29.1 L56.2,27.1 L59.2,27.1 C60.3,27.1 61.2,26.2 61.2,25.1 L61.2,12 C61,10.9 60.1,10 59.1,10 L59.1,10 Z" id="Shape" sketch:type="MSShapeGroup">
</path>
            <path d="M10,24.1 L50,24.1" id="Shape" sketch:type="MSShapeGroup">
</path>
        </g>
    </g>
</svg>